<svg height="511pt" viewBox="0 -159 511.99992 511" width="511pt" xmlns="http://www.w3.org/2000/svg"><path d="m420.835938 149.425781c5.519531 0 9.996093-4.476562 9.996093-9.996093 0-5.515626-4.476562-9.992188-9.996093-9.992188-5.515626 0-9.992188 4.476562-9.992188 9.992188 0 5.519531 4.476562 9.996093 9.992188 9.996093zm0 0"/><path d="m90.242188 149.425781c5.515624 0 9.996093-4.476562 9.996093-9.996093 0-5.515626-4.480469-9.992188-9.996093-9.992188-5.515626 0-9.996094 4.476562-9.996094 9.992188 0 5.519531 4.480468 9.996093 9.996094 9.996093zm0 0"/><path d="m326.957031 59.746094c10.054688 0 27.507813 9.273437 42.070313 29.648437 4.734375 6.605469 10.464844 16.207031 17.039062 25.800781 3.125 4.558594 9.34375 5.714844 13.894532 2.597657 4.550781-3.117188 5.714843-9.339844 2.597656-13.894531-6.386719-9.324219-12.140625-18.96875-17.277344-26.136719-16.503906-23.089844-39.394531-38.003907-58.320312-38.003907-5.519532 0-9.996094 4.472657-9.996094 9.992188s4.476562 9.996094 9.992187 9.996094zm0 0"/><path d="m19.59375 96.722656c-1.609375-4.117187-5.734375-6.6875-10.140625-6.320312-4.40625.371094-8.046875 3.59375-8.949219 7.921875-2.277344 10.925781 2.703125 41.050781 24.949219 64.476562 29.34375 30.902344 74.046875 35.527344 116.484375 28.941407 53.703125-8.328126 95.324219-36.347657 113.789062-75.886719 16.871094 36.28125 54.21875 66.835937 112.585938 75.886719 43 6.671874 88.128906 1.796874 117.964844-29.621094 22.339844-23.523438 27.46875-53.15625 25.25-63.796875-.902344-4.332031-4.546875-7.554688-8.953125-7.921875-4.410157-.347656-8.535157 2.207031-10.140625 6.328125-3.015625 7.726562-10.324219 12.71875-18.625 12.71875-22.5 0-40.59375-33.40625-56.003906-54.949219-24.207032-33.847656-56.929688-53.53125-89.777344-53.988281-.351563-.007813-.703125-.007813-1.054688-.007813-30.175781 0-57.785156 17.753906-71.453125 44.902344-14.203125-27.507812-42.652343-45.3867188-73.492187-44.894531-32.78125.539062-65.433594 20.21875-89.578125 53.988281-15.367188 21.484375-32.09375 54.949219-54.226563 54.949219-8.292968 0-15.605468-4.996094-18.628906-12.726563zm307.375-76.230468c.261719 0 .519531 0 .78125.003906 12.5.175781 44.71875 4.976562 73.792969 45.632812 17.253906 24.125 38.066406 63.308594 72.265625 63.308594 4.144531 0 8.167968-.625 11.964844-1.800781-3.273438 7.101562-8.089844 14.773437-15.027344 21.789062-21.601563 21.851563-55.035156 29.4375-99.367188 22.566407-72.375-11.226563-94.824218-55.101563-101.117187-73.445313-13.152344-38.316406 17.734375-78.054687 56.707031-78.054687zm-218.261719 45.636718c29.003907-40.566406 61.167969-45.425781 73.648438-45.632812 39.371093-.742188 72.09375 39.4375 58.851562 78.054687-13.0625 38.074219-51.316406 65.527344-102.335937 73.441407-44.050782 6.835937-77.089844-.628907-98.179688-22.183594-7.011718-7.164063-11.792968-15.054688-14.980468-22.34375 3.957031 1.289062 8.164062 1.972656 12.511718 1.972656 34.316406 0 53.664063-39.792969 70.484375-63.308594zm0 0"/><path d="m110.613281 117.34375c4.5625 3.109375 10.777344 1.9375 13.890625-2.625 4.363282-6.398438 12.917969-20.023438 16.722656-25.332031 14.566407-20.367188 32.015626-29.640625 42.0625-29.640625 5.519532 0 9.992188-4.476563 9.992188-9.996094s-4.472656-9.992188-9.992188-9.992188c-18.914062 0-41.808593 14.914063-58.316406 37.996094-4.5625 6.363282-11.695312 17.949219-16.984375 25.703125-3.109375 4.558594-1.933593 10.777344 2.625 13.886719zm0 0"/></svg>